JosefinSlab-BoldItalic.ufo
<glyph name="exclam" format="2">
  <advance width="201"/>
  <unicode hex="0021"/>
  <outline>
    <contour>
      <point x="47" y="0" type="qcurve" smooth="yes"/>
      <point x="22" y="0"/>
      <point x="-1" y="31"/>
      <point x="2" y="53" type="qcurve" smooth="yes"/>
      <point x="5" y="76"/>
      <point x="42" y="105"/>
      <point x="62" y="105" type="qcurve" smooth="yes"/>
      <point x="81" y="105"/>
      <point x="108" y="76"/>
      <point x="105" y="53" type="qcurve" smooth="yes"/>
      <point x="102" y="30"/>
      <point x="70" y="0"/>
    </contour>
    <contour>
      <point x="110" y="750" type="line"/>
      <point x="193" y="750" type="line"/>
      <point x="111" y="166" type="line"/>
      <point x="28" y="166" type="line"/>
    </contour>
  </outline>
</glyph>
<glyph name="period" format="2">
  <advance width="163"/>
  <unicode hex="002E"/>
  <outline>
    <contour>
      <point x="32" y="52" type="qcurve" smooth="yes"/>
      <point x="36" y="75"/>
      <point x="72" y="105"/>
      <point x="92" y="105" type="qcurve" smooth="yes"/>
      <point x="111" y="105"/>
      <point x="139" y="75"/>
      <point x="135" y="52" type="qcurve" smooth="yes"/>
      <point x="132" y="29"/>
      <point x="96" y="0"/>
      <point x="77" y="0" type="qcurve" smooth="yes"/>
      <point x="57" y="0"/>
      <point x="29" y="29"/>
    </contour>
  </outline>
</glyph>
<glyph name="slash" format="2">
  <advance width="380"/>
  <unicode hex="002F"/>
  <outline>
    <contour>
      <point x="-36" y="-19" type="line"/>
      <point x="61" y="171"/>
      <point x="251" y="546"/>
      <point x="348" y="736" type="qcurve"/>
      <point x="432" y="736" type="line"/>
      <point x="335" y="546"/>
      <point x="144" y="171"/>
      <point x="47" y="-19" type="qcurve"/>
    </contour>
  </outline>
</glyph>
<glyph name="seven" format="2">
  <advance width="469"/>
  <unicode hex="0037"/>
  <outline>
    <contour>
      <point x="472" y="650" type="line"/>
      <point x="89" y="0" type="line"/>
      <point x="-5" y="0" type="line"/>
      <point x="331" y="568" type="line"/>
      <point x="127" y="568" type="line"/>
      <point x="120" y="521" type="line"/>
      <point x="41" y="521" type="line"/>
      <point x="59" y="650" type="line"/>
    </contour>
  </outline>
</glyph>
<glyph name="semicolon" format="2">
  <advance width="201"/>
  <unicode hex="003B"/>
  <outline>
    <contour>
      <point x="89" y="302" type="qcurve" smooth="yes"/>
      <point x="93" y="325"/>
      <point x="129" y="355"/>
      <point x="149" y="355" type="qcurve" smooth="yes"/>
      <point x="168" y="355"/>
      <point x="196" y="325"/>
      <point x="192" y="302" type="qcurve" smooth="yes"/>
      <point x="189" y="279"/>
      <point x="153" y="250"/>
      <point x="134" y="250" type="qcurve" smooth="yes"/>
      <point x="114" y="250"/>
      <point x="86" y="279"/>
    </contour>
    <contour>
      <point x="144" y="86" type="line"/>
      <point x="115" y="34"/>
      <point x="58" y="-68"/>
      <point x="29" y="-120" type="qcurve"/>
      <point x="-45" y="-120" type="line"/>
      <point x="-18" y="-68"/>
      <point x="33" y="34"/>
      <point x="60" y="86" type="qcurve"/>
    </contour>
  </outline>
</glyph>
<glyph name="less" format="2">
  <advance width="680"/>
  <unicode hex="003C"/>
  <outline>
    <contour>
      <point x="533" y="99" type="qcurve"/>
      <point x="517" y="-14" type="line"/>
      <point x="416" y="49"/>
      <point x="217" y="175"/>
      <point x="116" y="238" type="qcurve"/>
      <point x="234" y="301"/>
      <point x="469" y="427"/>
      <point x="588" y="490" type="qcurve"/>
      <point x="572" y="377" type="line"/>
      <point x="507" y="342"/>
      <point x="377" y="273"/>
      <point x="312" y="238" type="qcurve"/>
      <point x="367" y="203"/>
      <point x="477" y="134"/>
    </contour>
  </outline>
</glyph>
<glyph name="equal" format="2">
  <advance width="708"/>
  <unicode hex="003D"/>
  <outline>
    <contour>
      <point x="598" y="193" type="line"/>
      <point x="586" y="112" type="line"/>
      <point x="80" y="112" type="line"/>
      <point x="92" y="193" type="line"/>
    </contour>
    <contour>
      <point x="625" y="387" type="line"/>
      <point x="613" y="306" type="line"/>
      <point x="107" y="306" type="line"/>
      <point x="119" y="387" type="line"/>
    </contour>
  </outline>
</glyph>
<glyph name="K" format="2">
  <advance width="686"/>
  <unicode hex="004B"/>
  <outline>
    <contour>
      <point x="440" y="79" type="line"/>
      <point x="492" y="79" type="line"/>
      <point x="445" y="150"/>
      <point x="353" y="291"/>
      <point x="308" y="363" type="qcurve"/>
      <point x="237" y="304" type="line"/>
      <point x="229" y="247"/>
      <point x="214" y="136"/>
      <point x="206" y="79" type="qcurve"/>
      <point x="288" y="79" type="line"/>
      <point x="277" y="0" type="line"/>
      <point x="35" y="0" type="line"/>
      <point x="46" y="79" type="line"/>
      <point x="123" y="79" type="line"/>
      <point x="199" y="621" type="line"/>
      <point x="122" y="621" type="line"/>
      <point x="133" y="700" type="line"/>
      <point x="355" y="700" type="line"/>
      <point x="344" y="621" type="line"/>
      <point x="282" y="621" type="line"/>
      <point x="254" y="426" type="line"/>
      <point x="252" y="418"/>
      <point x="249" y="402"/>
      <point x="247" y="394" type="qcurve"/>
      <point x="269" y="417" type="line"/>
      <point x="512" y="621" type="line"/>
      <point x="475" y="621" type="line"/>
      <point x="486" y="700" type="line"/>
      <point x="708" y="700" type="line"/>
      <point x="697" y="621" type="line"/>
      <point x="614" y="621" type="line"/>
      <point x="370" y="416" type="line"/>
      <point x="425" y="331"/>
      <point x="534" y="164"/>
      <point x="590" y="79" type="qcurve"/>
      <point x="662" y="79" type="line"/>
      <point x="651" y="0" type="line"/>
      <point x="429" y="0" type="line"/>
    </contour>
  </outline>
</glyph>
<glyph name="M" format="2">
  <advance width="976"/>
  <unicode hex="004D"/>
  <outline>
    <contour>
      <point x="35" y="0" type="line"/>
      <point x="46" y="79" type="line"/>
      <point x="133" y="79" type="line"/>
      <point x="209" y="621" type="line"/>
      <point x="122" y="621" type="line"/>
      <point x="133" y="700" type="line"/>
      <point x="245" y="700" type="line"/>
      <point x="524" y="257" type="line"/>
      <point x="927" y="700" type="line"/>
      <point x="1039" y="700" type="line"/>
      <point x="1028" y="621" type="line"/>
      <point x="941" y="621" type="line"/>
      <point x="865" y="79" type="line"/>
      <point x="952" y="79" type="line"/>
      <point x="941" y="0" type="line"/>
      <point x="699" y="0" type="line"/>
      <point x="710" y="79" type="line"/>
      <point x="782" y="79" type="line"/>
      <point x="835" y="450" type="line" smooth="yes"/>
      <point x="836" y="458"/>
      <point x="842" y="494"/>
      <point x="844" y="502" type="qcurve"/>
      <point x="835" y="491"/>
      <point x="816" y="467"/>
      <point x="806" y="456" type="qcurve" smooth="yes"/>
      <point x="505" y="125" type="line"/>
      <point x="297" y="457" type="line" smooth="yes"/>
      <point x="288" y="471"/>
      <point x="277" y="492"/>
      <point x="272" y="502" type="qcurve"/>
      <point x="272" y="494"/>
      <point x="270" y="463"/>
      <point x="269" y="455" type="qcurve" smooth="yes"/>
      <point x="216" y="79" type="line"/>
      <point x="288" y="79" type="line"/>
      <point x="277" y="0" type="line"/>
    </contour>
  </outline>
</glyph>
<glyph name="S" format="2">
  <advance width="478"/>
  <unicode hex="0053"/>
  <outline>
    <contour>
      <point x="35" y="93" type="qcurve"/>
      <point x="51" y="209" type="line"/>
      <point x="130" y="209" type="line"/>
      <point x="117" y="120" type="line"/>
      <point x="141" y="100"/>
      <point x="209" y="71"/>
      <point x="254" y="71" type="qcurve" smooth="yes"/>
      <point x="280" y="71"/>
      <point x="330" y="86"/>
      <point x="350" y="100" type="qcurve" smooth="yes" name="inserted"/>
      <point x="371" y="115"/>
      <point x="399" y="159"/>
      <point x="403" y="188" type="qcurve" smooth="yes"/>
      <point x="409" y="227"/>
      <point x="388" y="277"/>
      <point x="368" y="293" type="qcurve" smooth="yes" name="inserted"/>
      <point x="347" y="309"/>
      <point x="291" y="329"/>
      <point x="262" y="338" type="qcurve" smooth="yes" name="inserted"/>
      <point x="233" y="348"/>
      <point x="177" y="371"/>
      <point x="157" y="390" type="qcurve" smooth="yes" name="inserted"/>
      <point x="137" y="410"/>
      <point x="116" y="470"/>
      <point x="122" y="517" type="qcurve" smooth="yes"/>
      <point x="126" y="550"/>
      <point x="155" y="616"/>
      <point x="182" y="643" type="qcurve" smooth="yes" name="inserted"/>
      <point x="209" y="670"/>
      <point x="290" y="704"/>
      <point x="345" y="704" type="qcurve" smooth="yes"/>
      <point x="363" y="704"/>
      <point x="404" y="700"/>
      <point x="426" y="694" type="qcurve" smooth="yes" name="inserted"/>
      <point x="448" y="688"/>
      <point x="494" y="664"/>
      <point x="515" y="644" type="qcurve"/>
      <point x="501" y="546" type="line"/>
      <point x="422" y="546" type="line"/>
      <point x="431" y="605" type="line"/>
      <point x="413" y="613"/>
      <point x="364" y="625"/>
      <point x="334" y="625" type="qcurve" smooth="yes"/>
      <point x="307" y="625"/>
      <point x="263" y="609"/>
      <point x="247" y="596" type="qcurve" smooth="yes"/>
      <point x="229" y="580"/>
      <point x="208" y="538"/>
      <point x="205" y="514" type="qcurve" smooth="yes"/>
      <point x="201" y="484"/>
      <point x="224" y="447"/>
      <point x="245" y="434" type="qcurve" smooth="yes" name="inserted"/>
      <point x="266" y="422"/>
      <point x="322" y="404"/>
      <point x="352" y="394" type="qcurve" smooth="yes" name="inserted"/>
      <point x="381" y="383"/>
      <point x="435" y="354"/>
      <point x="455" y="330" type="qcurve" smooth="yes" name="inserted"/>
      <point x="475" y="307"/>
      <point x="493" y="238"/>
      <point x="486" y="187" type="qcurve" smooth="yes"/>
      <point x="480" y="142"/>
      <point x="436" y="70"/>
      <point x="404" y="44" type="qcurve" smooth="yes" name="inserted"/>
      <point x="373" y="19"/>
      <point x="293" y="-8"/>
      <point x="251" y="-8" type="qcurve" smooth="yes"/>
      <point x="213" y="-8"/>
      <point x="144" y="9"/>
      <point x="116" y="23" type="qcurve" smooth="yes" name="inserted"/>
      <point x="87" y="37"/>
      <point x="45" y="73"/>
    </contour>
  </outline>
</glyph>
<glyph name="backslash" format="2">
  <advance width="385"/>
  <unicode hex="005C"/>
  <outline>
    <contour>
      <point x="147" y="736" type="line"/>
      <point x="190" y="546"/>
      <point x="275" y="171"/>
      <point x="318" y="-19" type="qcurve"/>
      <point x="224" y="-19" type="line"/>
      <point x="181" y="171"/>
      <point x="96" y="546"/>
      <point x="53" y="736" type="qcurve"/>
    </contour>
  </outline>
</glyph>
<glyph name="bracketright" format="2">
  <advance width="342"/>
  <unicode hex="005D"/>
  <outline>
    <contour>
      <point x="313" y="746" type="line"/>
      <point x="188" y="-149" type="line"/>
      <point x="-3" y="-149" type="line"/>
      <point x="7" y="-68" type="line"/>
      <point x="116" y="-68" type="line"/>
      <point x="219" y="665" type="line"/>
      <point x="110" y="665" type="line"/>
      <point x="121" y="746" type="line"/>
    </contour>
  </outline>
</glyph>
<glyph name="o" format="2">
  <advance width="471"/>
  <unicode hex="006F"/>
  <outline>
    <contour>
      <point x="62" y="188" type="qcurve" smooth="yes"/>
      <point x="68" y="228"/>
      <point x="109" y="300"/>
      <point x="140.0" y="326.5" type="qcurve" smooth="yes" name="inserted"/>
      <point x="171" y="353"/>
      <point x="248" y="384"/>
      <point x="290" y="384" type="qcurve" smooth="yes"/>
      <point x="332" y="384"/>
      <point x="401" y="353"/>
      <point x="424.5" y="326.5" type="qcurve" smooth="yes" name="inserted"/>
      <point x="448" y="300"/>
      <point x="469" y="228"/>
      <point x="463" y="188" type="qcurve" smooth="yes"/>
      <point x="457" y="147"/>
      <point x="416" y="76"/>
      <point x="385.5" y="49.0" type="qcurve" smooth="yes" name="inserted"/>
      <point x="355" y="22"/>
      <point x="277" y="-9"/>
      <point x="235" y="-9" type="qcurve" smooth="yes"/>
      <point x="193" y="-9"/>
      <point x="125" y="22"/>
      <point x="101.5" y="49.0" type="qcurve" smooth="yes" name="inserted"/>
      <point x="78" y="76"/>
      <point x="56" y="147"/>
    </contour>
    <contour>
      <point x="145" y="187" type="qcurve" smooth="yes"/>
      <point x="142" y="163"/>
      <point x="154" y="121"/>
      <point x="167.5" y="105.5" type="qcurve" smooth="yes" name="inserted"/>
      <point x="181" y="90"/>
      <point x="220" y="72"/>
      <point x="244" y="72" type="qcurve" smooth="yes"/>
      <point x="268" y="72"/>
      <point x="313" y="90"/>
      <point x="331.0" y="105.5" type="qcurve" smooth="yes" name="inserted"/>
      <point x="349" y="121"/>
      <point x="373" y="163"/>
      <point x="376" y="187" type="qcurve" smooth="yes"/>
      <point x="379" y="211"/>
      <point x="367" y="253"/>
      <point x="353.5" y="269.0" type="qcurve" smooth="yes" name="inserted"/>
      <point x="340" y="285"/>
      <point x="300" y="303"/>
      <point x="276" y="303" type="qcurve" smooth="yes"/>
      <point x="252" y="303"/>
      <point x="208" y="285"/>
      <point x="190.0" y="269.0" type="qcurve" smooth="yes" name="inserted"/>
      <point x="172" y="253"/>
      <point x="148" y="211"/>
    </contour>
  </outline>
</glyph>
<glyph name="u" format="2">
  <advance width="570"/>
  <unicode hex="0075"/>
  <outline>
    <contour>
      <point x="391" y="0" type="line"/>
      <point x="398" y="51" type="line"/>
      <point x="407" y="96" type="line"/>
      <point x="380" y="48"/>
      <point x="284" y="-9"/>
      <point x="230" y="-9" type="qcurve" smooth="yes"/>
      <point x="171" y="-9"/>
      <point x="111" y="53"/>
      <point x="116" y="103" type="qcurve" smooth="yes"/>
      <point x="143" y="296" type="line"/>
      <point x="77" y="296" type="line"/>
      <point x="88" y="375" type="line"/>
      <point x="237" y="375" type="line"/>
      <point x="205" y="141" type="line"/>
      <point x="203" y="114"/>
      <point x="232" y="75"/>
      <point x="270" y="73" type="qcurve"/>
      <point x="296" y="73"/>
      <point x="346" y="91"/>
      <point x="366.0" y="107.0" type="qcurve" smooth="yes" name="inserted"/>
      <point x="386" y="123"/>
      <point x="414" y="167"/>
      <point x="418" y="193" type="qcurve" smooth="yes"/>
      <point x="432" y="296" type="line"/>
      <point x="366" y="296" type="line"/>
      <point x="377" y="375" type="line"/>
      <point x="526" y="375" type="line"/>
      <point x="484" y="70" type="line"/>
      <point x="546" y="70" type="line"/>
      <point x="536" y="0" type="line"/>
    </contour>
  </outline>
</glyph>
<glyph name="z" format="2">
  <advance width="435"/>
  <unicode hex="007A"/>
  <outline>
    <contour>
      <point x="419" y="138" type="line"/>
      <point x="400" y="0" type="line"/>
      <point x="35" y="0" type="line"/>
      <point x="46" y="81" type="line"/>
      <point x="301" y="296" type="line"/>
      <point x="88" y="296" type="line"/>
      <point x="104" y="410" type="line"/>
      <point x="178" y="410" type="line"/>
      <point x="173" y="375" type="line"/>
      <point x="429" y="375" type="line"/>
      <point x="418" y="294" type="line"/>
      <point x="163" y="81" type="line"/>
      <point x="337" y="81" type="line"/>
      <point x="345" y="138" type="line"/>
    </contour>
  </outline>
</glyph>
<glyph name="bar" format="2">
  <advance width="271"/>
  <unicode hex="007C"/>
  <outline>
    <contour>
      <point x="91" y="-232" type="line"/>
      <point x="221" y="700" type="line"/>
      <point x="305" y="700" type="line"/>
      <point x="175" y="-232" type="line"/>
    </contour>
  </outline>
</glyph>
<glyph name="section" format="2">
  <advance width="500"/>
  <unicode hex="00A7"/>
  <outline>
    <contour>
      <point x="251" y="360" type="qcurve" smooth="yes"/>
      <point x="249" y="345"/>
      <point x="257" y="319"/>
      <point x="267" y="311" type="qcurve" smooth="yes"/>
      <point x="274" y="304"/>
      <point x="294" y="296"/>
      <point x="306" y="296" type="qcurve" smooth="yes"/>
      <point x="318" y="296"/>
      <point x="341" y="305"/>
      <point x="351" y="312" type="qcurve" smooth="yes"/>
      <point x="362" y="321"/>
      <point x="377" y="346"/>
      <point x="379" y="360" type="qcurve" smooth="yes"/>
      <point x="381" y="373"/>
      <point x="374" y="397"/>
      <point x="367" y="405" type="qcurve" smooth="yes"/>
      <point x="359" y="414"/>
      <point x="337" y="424"/>
      <point x="324" y="424" type="qcurve" smooth="yes"/>
      <point x="310" y="424"/>
      <point x="284" y="413"/>
      <point x="274" y="403" type="qcurve" smooth="yes"/>
      <point x="265" y="395"/>
      <point x="253" y="373"/>
    </contour>
    <contour>
      <point x="244" y="148" type="qcurve" smooth="yes"/>
      <point x="192" y="258" type="line" smooth="yes" name="inserted"/>
      <point x="180" y="284"/>
      <point x="171" y="353"/>
      <point x="180" y="384" type="qcurve" smooth="yes" name="inserted"/>
      <point x="187" y="406"/>
      <point x="211" y="446"/>
      <point x="228" y="461" type="qcurve" smooth="yes"/>
      <point x="242" y="474"/>
      <point x="268.1761808938113" y="488.6844129710395"/>
      <point x="284" y="493" type="qcurve" smooth="yes"/>
      <point x="292" y="496"/>
      <point x="308" y="499"/>
      <point x="317" y="500" type="qcurve"/>
      <point x="309" y="517"/>
      <point x="294" y="551"/>
      <point x="286" y="569" type="qcurve" smooth="yes"/>
      <point x="272" y="602"/>
      <point x="267" y="649"/>
      <point x="273" y="666" type="qcurve" smooth="yes" name="inserted"/>
      <point x="279" y="684"/>
      <point x="306" y="708"/>
      <point x="324" y="718" type="qcurve" smooth="yes"/>
      <point x="344" y="729"/>
      <point x="385" y="751"/>
      <point x="405" y="762" type="qcurve"/>
      <point x="412" y="745" name="inserted"/>
      <point x="428" y="710"/>
      <point x="437" y="692" type="qcurve"/>
      <point x="426" y="687"/>
      <point x="406" y="676"/>
      <point x="395" y="670" type="qcurve" smooth="yes"/>
      <point x="382" y="663"/>
      <point x="367" y="648"/>
      <point x="364" y="638" type="qcurve" smooth="yes" name="inserted"/>
      <point x="362" y="628"/>
      <point x="368" y="601"/>
      <point x="378" y="580" type="qcurve" smooth="yes"/>
      <point x="392" y="549"/>
      <point x="434" y="459"/>
      <point x="447" y="431" type="qcurve" smooth="yes"/>
      <point x="458" y="408"/>
      <point x="459" y="356"/>
      <point x="451" y="330" type="qcurve" smooth="yes" name="inserted"/>
      <point x="445" y="310"/>
      <point x="421" y="272"/>
      <point x="405" y="256" type="qcurve" smooth="yes"/>
      <point x="394" y="245"/>
      <point x="364" y="229"/>
      <point x="349" y="223" type="qcurve" smooth="yes"/>
      <point x="340" y="220"/>
      <point x="322" y="215"/>
      <point x="312" y="214" type="qcurve"/>
      <point x="344" y="144" type="line" smooth="yes"/>
      <point x="359" y="111"/>
      <point x="364" y="63"/>
      <point x="358" y="46" type="qcurve" smooth="yes" name="inserted"/>
      <point x="352" y="28"/>
      <point x="325" y="3"/>
      <point x="307" y="-7" type="qcurve" smooth="yes"/>
      <point x="287" y="-18"/>
      <point x="248" y="-39"/>
      <point x="228" y="-50" type="qcurve"/>
      <point x="195" y="20" type="line"/>
      <point x="206" y="26"/>
      <point x="227" y="37"/>
      <point x="238" y="43" type="qcurve" smooth="yes"/>
      <point x="251" y="50"/>
      <point x="266" y="66"/>
      <point x="266" y="78" type="qcurve" smooth="yes" name="inserted"/>
      <point x="267" y="89"/>
      <point x="256" y="122"/>
    </contour>
  </outline>
</glyph>
<glyph name="guillemotleft" format="2">
  <advance width="601"/>
  <unicode hex="00AB"/>
  <outline>
    <contour>
      <point x="459" y="77" type="line"/>
      <point x="310" y="239" type="line"/>
      <point x="359" y="280"/>
      <point x="455" y="359"/>
      <point x="504" y="400" type="qcurve"/>
      <point x="491" y="306" type="line"/>
      <point x="472" y="289"/>
      <point x="435" y="256"/>
      <point x="416" y="239" type="qcurve"/>
      <point x="430" y="222"/>
      <point x="458" y="189"/>
      <point x="472" y="172" type="qcurve"/>
    </contour>
    <contour>
      <point x="288" y="77" type="line"/>
      <point x="139" y="239" type="line"/>
      <point x="188" y="280"/>
      <point x="284" y="359"/>
      <point x="333" y="400" type="qcurve"/>
      <point x="320" y="305" type="line"/>
      <point x="300" y="288"/>
      <point x="264" y="256"/>
      <point x="245" y="239" type="qcurve"/>
      <point x="259" y="222"/>
      <point x="287" y="189"/>
      <point x="301" y="172" type="qcurve"/>
    </contour>
  </outline>
</glyph>
<glyph name="plusminus" format="2">
  <advance width="524"/>
  <unicode hex="00B1"/>
  <outline>
    <contour>
      <point x="239" y="211" type="line"/>
      <point x="259" y="350" type="line"/>
      <point x="121" y="350" type="line"/>
      <point x="132" y="431" type="line"/>
      <point x="270" y="431" type="line"/>
      <point x="290" y="571" type="line"/>
      <point x="374" y="571" type="line"/>
      <point x="354" y="431" type="line"/>
      <point x="492" y="431" type="line"/>
      <point x="481" y="350" type="line"/>
      <point x="343" y="350" type="line"/>
      <point x="323" y="211" type="line"/>
    </contour>
    <contour>
      <point x="446" y="100" type="line"/>
      <point x="86" y="100" type="line"/>
      <point x="97" y="181" type="line"/>
      <point x="457" y="181" type="line"/>
    </contour>
  </outline>
</glyph>
<glyph name="mu" format="2">
  <advance width="551"/>
  <unicode hex="00B5"/>
  <outline>
    <contour>
      <point x="385" y="375" type="line"/>
      <point x="534" y="375" type="line"/>
      <point x="492" y="70" type="line"/>
      <point x="554" y="70" type="line"/>
      <point x="544" y="0" type="line"/>
      <point x="399" y="0" type="line"/>
      <point x="406" y="51" type="line"/>
      <point x="415" y="96" type="line"/>
      <point x="388" y="48"/>
      <point x="291" y="-9"/>
      <point x="237" y="-9" type="qcurve" smooth="yes"/>
      <point x="225.0" y="-9.0" name="inserted"/>
      <point x="202.5" y="-6.0"/>
      <point x="192" y="-3" type="qcurve"/>
      <point x="165" y="-201" type="line"/>
      <point x="82" y="-201" type="line"/>
      <point x="151" y="296" type="line"/>
      <point x="85" y="296" type="line"/>
      <point x="96" y="375" type="line"/>
      <point x="245" y="375" type="line"/>
      <point x="213" y="141" type="line"/>
      <point x="211" y="114"/>
      <point x="240" y="75"/>
      <point x="278" y="73" type="qcurve"/>
      <point x="304" y="73"/>
      <point x="354" y="91"/>
      <point x="374.0" y="107.0" type="qcurve" smooth="yes" name="inserted"/>
      <point x="394" y="123"/>
      <point x="422" y="167"/>
      <point x="426" y="193" type="qcurve" smooth="yes"/>
      <point x="440" y="296" type="line"/>
      <point x="374" y="296" type="line"/>
    </contour>
  </outline>
</glyph>
<glyph name="periodcentered" format="2">
  <advance width="168"/>
  <unicode hex="00B7"/>
  <outline>
    <contour>
      <point x="33" y="282" type="qcurve" smooth="yes"/>
      <point x="37" y="305"/>
      <point x="73" y="335"/>
      <point x="93" y="335" type="qcurve" smooth="yes"/>
      <point x="112" y="335"/>
      <point x="140" y="305"/>
      <point x="136" y="282" type="qcurve" smooth="yes"/>
      <point x="133" y="259"/>
      <point x="97" y="230"/>
      <point x="78" y="230" type="qcurve" smooth="yes"/>
      <point x="58" y="230"/>
      <point x="30" y="259"/>
    </contour>
  </outline>
</glyph>
<glyph name="onequarter" format="2">
  <advance width="968"/>
  <unicode hex="00BC"/>
  <outline>
    <contour>
      <point x="203" y="-19" type="line"/>
      <point x="300" y="171"/>
      <point x="490" y="546"/>
      <point x="587" y="736" type="qcurve"/>
      <point x="671" y="736" type="line"/>
      <point x="574" y="546"/>
      <point x="383" y="171"/>
      <point x="286" y="-19" type="qcurve"/>
    </contour>
    <contour>
      <point x="629" y="59" type="line"/>
      <point x="684" y="59" type="line"/>
      <point x="695" y="136" type="line"/>
      <point x="486" y="136" type="line"/>
      <point x="808" y="490" type="line"/>
      <point x="766" y="197" type="line"/>
      <point x="838" y="197" type="line"/>
      <point x="830" y="136" type="line"/>
      <point x="758" y="136" type="line"/>
      <point x="747" y="59" type="line"/>
      <point x="808" y="59" type="line"/>
      <point x="800" y="0" type="line"/>
      <point x="620" y="0" type="line"/>
    </contour>
    <contour>
      <point x="719" y="308" type="line"/>
      <point x="619" y="197" type="line"/>
      <point x="704" y="197" type="line"/>
    </contour>
    <contour>
      <point x="89" y="290" type="line"/>
      <point x="145" y="290" type="line"/>
      <point x="194" y="638" type="line"/>
      <point x="145" y="638" type="line"/>
      <point x="153" y="695" type="line"/>
      <point x="261" y="695" type="line"/>
      <point x="204" y="290" type="line"/>
      <point x="260" y="290" type="line"/>
      <point x="252" y="234" type="line"/>
      <point x="81" y="234" type="line"/>
    </contour>
  </outline>
</glyph>
<glyph name="threequarters" format="2">
  <advance width="1276"/>
  <unicode hex="00BE"/>
  <outline>
    <contour>
      <point x="212" y="457" type="qcurve"/>
      <point x="346" y="644" type="line"/>
      <point x="260" y="644" type="line"/>
      <point x="255" y="608" type="line"/>
      <point x="194" y="608" type="line"/>
      <point x="208" y="708" type="line"/>
      <point x="463" y="708" type="line"/>
      <point x="326" y="524" type="line"/>
      <point x="350" y="514"/>
      <point x="388" y="484"/>
      <point x="400" y="464" type="qcurve" smooth="yes" name="inserted"/>
      <point x="413" y="444"/>
      <point x="423" y="395"/>
      <point x="419" y="367" type="qcurve" smooth="yes"/>
      <point x="415" y="332"/>
      <point x="378" y="271"/>
      <point x="352" y="248" type="qcurve" smooth="yes" name="inserted"/>
      <point x="326" y="225"/>
      <point x="261" y="199"/>
      <point x="226" y="199" type="qcurve" smooth="yes"/>
      <point x="189" y="199"/>
      <point x="130" y="229"/>
      <point x="110" y="254" type="qcurve"/>
      <point x="163" y="298" type="line"/>
      <point x="175" y="281"/>
      <point x="212" y="261"/>
      <point x="235" y="261" type="qcurve" smooth="yes"/>
      <point x="257" y="261"/>
      <point x="297" y="278"/>
      <point x="313" y="293" type="qcurve" smooth="yes" name="inserted"/>
      <point x="330" y="307"/>
      <point x="352" y="345"/>
      <point x="355" y="367" type="qcurve" smooth="yes"/>
      <point x="358" y="388"/>
      <point x="347" y="426"/>
      <point x="334" y="440" type="qcurve" smooth="yes" name="inserted"/>
      <point x="322" y="454"/>
      <point x="286" y="470"/>
      <point x="265" y="470" type="qcurve" smooth="yes"/>
      <point x="251" y="470" name="inserted"/>
      <point x="224" y="464"/>
    </contour>
    <contour>
      <point x="393" y="-19" type="line"/>
      <point x="490" y="171"/>
      <point x="680" y="546"/>
      <point x="777" y="736" type="qcurve"/>
      <point x="861" y="736" type="line"/>
      <point x="764" y="546"/>
      <point x="573" y="171"/>
      <point x="476" y="-19" type="qcurve"/>
    </contour>
    <contour>
      <point x="828" y="59" type="line"/>
      <point x="883" y="59" type="line"/>
      <point x="894" y="136" type="line"/>
      <point x="685" y="136" type="line"/>
      <point x="1007" y="490" type="line"/>
      <point x="965" y="197" type="line"/>
      <point x="1037" y="197" type="line"/>
      <point x="1029" y="136" type="line"/>
      <point x="957" y="136" type="line"/>
      <point x="946" y="59" type="line"/>
      <point x="1007" y="59" type="line"/>
      <point x="999" y="0" type="line"/>
      <point x="819" y="0" type="line"/>
    </contour>
    <contour>
      <point x="918" y="308" type="line"/>
      <point x="818" y="197" type="line"/>
      <point x="903" y="197" type="line"/>
    </contour>
  </outline>
</glyph>
<glyph name="multiply" format="2">
  <advance width="500"/>
  <unicode hex="00D7"/>
  <outline>
    <contour>
      <point x="364" y="0" type="line"/>
      <point x="342" y="25"/>
      <point x="300" y="73"/>
      <point x="278" y="98" type="qcurve"/>
      <point x="251" y="74"/>
      <point x="195" y="25"/>
      <point x="168" y="1" type="qcurve"/>
      <point x="155" y="15"/>
      <point x="130" y="44"/>
      <point x="118" y="58" type="qcurve"/>
      <point x="146" y="83"/>
      <point x="201" y="131"/>
      <point x="229" y="156" type="qcurve"/>
      <point x="144" y="255" type="line"/>
      <point x="212" y="314" type="line"/>
      <point x="297" y="215" type="line"/>
      <point x="325" y="240"/>
      <point x="380" y="288"/>
      <point x="408" y="313" type="qcurve"/>
      <point x="421" y="299"/>
      <point x="445" y="269"/>
      <point x="457" y="255" type="qcurve"/>
      <point x="430" y="231"/>
      <point x="374" y="182"/>
      <point x="347" y="158" type="qcurve"/>
      <point x="368" y="133"/>
      <point x="409" y="84"/>
      <point x="431" y="59" type="qcurve"/>
    </contour>
  </outline>
</glyph>
<glyph name="Oslash" format="2">
  <advance width="786"/>
  <unicode hex="00D8"/>
  <outline>
    <contour>
      <point x="169" y="349" type="qcurve" smooth="yes"/>
      <point x="161" y="296"/>
      <point x="184" y="203"/>
      <point x="211" y="166" type="qcurve"/>
      <point x="350" y="305"/>
      <point x="488" y="443"/>
      <point x="627" y="582" type="qcurve"/>
      <point x="597" y="604"/>
      <point x="524" y="629"/>
      <point x="482" y="629" type="qcurve" smooth="yes"/>
      <point x="425" y="629"/>
      <point x="319" y="585"/>
      <point x="277" y="547" type="qcurve" smooth="yes" name="inserted"/>
      <point x="234" y="508"/>
      <point x="177" y="406"/>
    </contour>
    <contour>
      <point x="404" y="71" type="qcurve" smooth="yes"/>
      <point x="461" y="71"/>
      <point x="567" y="115"/>
      <point x="610.0" y="153" type="qcurve" smooth="yes" name="inserted"/>
      <point x="653" y="190"/>
      <point x="711" y="292"/>
      <point x="719" y="349" type="qcurve" smooth="yes"/>
      <point x="727" y="401"/>
      <point x="703" y="494"/>
      <point x="677" y="531" type="qcurve"/>
      <point x="572" y="426"/>
      <point x="367" y="220"/>
      <point x="262" y="115" type="qcurve"/>
      <point x="291" y="94"/>
      <point x="362" y="71"/>
    </contour>
    <contour>
      <point x="86" y="349" type="qcurve" smooth="yes"/>
      <point x="96" y="423"/>
      <point x="171" y="554"/>
      <point x="226.0" y="603" type="qcurve" smooth="yes" name="inserted"/>
      <point x="281" y="651"/>
      <point x="419" y="708"/>
      <point x="493" y="708" type="qcurve" smooth="yes"/>
      <point x="550" y="708"/>
      <point x="649" y="674"/>
      <point x="688" y="644" type="qcurve"/>
      <point x="763" y="719" type="line"/>
      <point x="814" y="668" type="line"/>
      <point x="795" y="649"/>
      <point x="758" y="613"/>
      <point x="739" y="594" type="qcurve"/>
      <point x="777" y="546"/>
      <point x="812" y="420"/>
      <point x="802" y="349" type="qcurve" smooth="yes"/>
      <point x="791" y="275"/>
      <point x="717" y="145"/>
      <point x="662" y="97" type="qcurve" smooth="yes" name="inserted"/>
      <point x="606" y="48"/>
      <point x="467" y="-8"/>
      <point x="393" y="-8" type="qcurve" smooth="yes"/>
      <point x="336" y="-8"/>
      <point x="239" y="24"/>
      <point x="200" y="53" type="qcurve"/>
      <point x="183" y="36"/>
      <point x="148" y="0"/>
      <point x="131" y="-17" type="qcurve"/>
      <point x="118" y="-4"/>
      <point x="92" y="21"/>
      <point x="80" y="34" type="qcurve"/>
      <point x="97" y="51"/>
      <point x="131" y="86"/>
      <point x="148" y="103" type="qcurve"/>
      <point x="110" y="151"/>
      <point x="76" y="277"/>
    </contour>
  </outline>
</glyph>
<glyph name="ccedilla" format="2">
  <advance width="398"/>
  <unicode hex="00E7"/>
  <outline>
    <contour>
      <point x="315" y="97" type="qcurve"/>
      <point x="356" y="34" type="line"/>
      <point x="327" y="14"/>
      <point x="260" y="-9"/>
      <point x="224" y="-9" type="qcurve"/>
      <point x="222" y="-24"/>
      <point x="227" y="-40"/>
      <point x="232" y="-45" type="qcurve" smooth="yes" name="inserted"/>
      <point x="238" y="-50"/>
      <point x="253" y="-56"/>
      <point x="259" y="-61" type="qcurve" smooth="yes"/>
      <point x="278" y="-77"/>
      <point x="289" y="-117"/>
      <point x="285" y="-142" type="qcurve" smooth="yes"/>
      <point x="281" y="-167"/>
      <point x="257" y="-211"/>
      <point x="238" y="-226" type="qcurve" smooth="yes"/>
      <point x="222.7306096062154" y="-237.45204279533843" name="inserted"/>
      <point x="186.00504934614614" y="-250.0"/>
      <point x="165" y="-250" type="qcurve" smooth="yes"/>
      <point x="149" y="-250"/>
      <point x="119" y="-242"/>
      <point x="107" y="-233" type="qcurve" smooth="yes"/>
      <point x="94" y="-224"/>
      <point x="75" y="-195"/>
      <point x="71" y="-175" type="qcurve"/>
      <point x="121" y="-151" type="line"/>
      <point x="122" y="-159"/>
      <point x="129" y="-171"/>
      <point x="134" y="-176" type="qcurve" smooth="yes"/>
      <point x="140" y="-182"/>
      <point x="156" y="-188"/>
      <point x="167" y="-188" type="qcurve" smooth="yes"/>
      <point x="180" y="-188"/>
      <point x="202" y="-178"/>
      <point x="209" y="-169" type="qcurve" smooth="yes"/>
      <point x="215" y="-162"/>
      <point x="223" y="-143"/>
      <point x="225" y="-132" type="qcurve" smooth="yes"/>
      <point x="228" y="-112"/>
      <point x="209" y="-89"/>
      <point x="198" y="-80" type="qcurve" smooth="yes" name="inserted"/>
      <point x="186" y="-71"/>
      <point x="167" y="-51"/>
      <point x="169" y="-34" type="qcurve" smooth="yes"/>
      <point x="174" y="-2" type="line"/>
      <point x="143" y="6"/>
      <point x="94" y="42"/>
      <point x="78" y="67" type="qcurve" smooth="yes" name="inserted"/>
      <point x="61" y="92"/>
      <point x="48" y="154"/>
      <point x="53" y="188" type="qcurve" smooth="yes"/>
      <point x="59" y="228"/>
      <point x="100" y="300"/>
      <point x="130" y="326" type="qcurve" smooth="yes" name="inserted"/>
      <point x="161" y="353"/>
      <point x="238" y="384"/>
      <point x="280" y="384" type="qcurve" smooth="yes"/>
      <point x="317" y="384"/>
      <point x="378" y="361"/>
      <point x="401" y="341" type="qcurve"/>
      <point x="385" y="225" type="line"/>
      <point x="310" y="225" type="line"/>
      <point x="319" y="292" type="line"/>
      <point x="307" y="298" name="inserted"/>
      <point x="282" y="303"/>
      <point x="269" y="303" type="qcurve" smooth="yes"/>
      <point x="243" y="303"/>
      <point x="198" y="286"/>
      <point x="180" y="270" type="qcurve" smooth="yes" name="inserted"/>
      <point x="162" y="255"/>
      <point x="139" y="213"/>
      <point x="136" y="188" type="qcurve" smooth="yes"/>
      <point x="132" y="164"/>
      <point x="143" y="121"/>
      <point x="156" y="106" type="qcurve" smooth="yes" name="inserted"/>
      <point x="170" y="90"/>
      <point x="210" y="72"/>
      <point x="236" y="72" type="qcurve" smooth="yes"/>
      <point x="258" y="72" name="inserted"/>
      <point x="297" y="84"/>
    </contour>
  </outline>
</glyph>
<glyph name="dotlessi" format="2">
  <advance width="292"/>
  <unicode hex="0131"/>
  <outline>
    <contour>
      <point x="46" y="79" type="line"/>
      <point x="116" y="79" type="line"/>
      <point x="146" y="296" type="line"/>
      <point x="76" y="296" type="line"/>
      <point x="87" y="375" type="line"/>
      <point x="240" y="375" type="line"/>
      <point x="199" y="79" type="line"/>
      <point x="268" y="79" type="line"/>
      <point x="257" y="0" type="line"/>
      <point x="35" y="0" type="line"/>
    </contour>
  </outline>
</glyph>
